<?xml version="1.0" encoding="UTF-8"?>
<!-- Created with Inkscape (http://www.inkscape.org/) -->
<svg version="1.1" viewBox="0 0 320 96" xmlns="http://www.w3.org/2000/svg">
	<g transform="translate(0,64)">
		<g>
			<path d="m10-41v-14h2v14z"/>
			<path d="m12-54s3-1 5 1 5 1 5 1v8s-3 1-5-1-5-1-5-1l-1-4z"/>
			<path d="m42-55h4v14h-4z"/>
			<path d="m49-55h4v14h-4z"/>
			<path d="m109-41h6l4-4v-6l-4-4h-6l-4 4v6z"/>
			<path d="m74-55 12 7-12 7z"/>
			<path d="m169-55h7v2h-5v10h10v-5h2v7h-14z"/>
			<path d="m175-48.5 4.5-4.5-2-2h5.5v5.5l-2-2-4.5 4.5h-1.5z"/>
			<path d="m151-55v5.5l-2-2-2.5 2.5-0.65587-0.65587-0.84413-0.84413 2.5-2.5-2-2z"/>
			<path d="m137-55h5.5l-2 2 2.5 2.5-1.5 1.5-2.5-2.5-2 2z"/>
			<path d="m137-41v-5.5l2 2 2.5-2.5 1.5 1.5-2.5 2.5 2 2z"/>
			<path d="m151-41h-5.5l2-2-2.5-2.5 0.65587-0.65587 0.84413-0.84413 2.5 2.5 2-2z"/>
		</g>
		<g fill="#fff">
			<path d="m10-9v-14h2v14z"/>
			<path d="m12-22s3-1 5 1 5 1 5 1v8s-3 1-5-1-5-1-5-1z"/>
			<path d="m42-23h4v14h-4z"/>
			<path d="m49-23h4v14h-4z"/>
			<path d="m109-9h6l4-4v-6l-4-4h-6l-4 4v6z"/>
			<path d="m74-23 12 7-12 7z"/>
			<path d="m145-17v-5.5l2 2 2.5-2.5 0.65587 0.65587 0.84413 0.84413-2.5 2.5 2 2z"/>
			<path d="m143-17h-5.5l2-2-2.5-2.5 1.5-1.5 2.5 2.5 2-2z"/>
			<path d="m143-15v5.5l-2-2-2.5 2.5-1.5-1.5 2.5-2.5-2-2z"/>
			<path d="m145-15h5.5l-2 2 2.5 2.5-0.65587 0.65587-0.84413 0.84413-2.5-2.5-2 2z"/>
		</g>
		<path transform="translate(166,-26)" d="M 20,10 A 10,10 0 0 1 10,20 10,10 0 0 1 0,10 10,10 0 0 1 10,0 10,10 0 0 1 20,10 Z" fill="#2eaedf"/>
		<path d="m170-14.5 4 4 7-7v-4l-7 7-2-2z" fill="#fff"/>
		<path d="m204-60s-5.0562 12.797-6.2491 15.623c-1.1929 2.8256 0.18937 3.6101 2.7716 2.5892s38.477-15.212 38.477-15.212v-3l-38 15 6-15z" color="#000000" fill="#a0a0a0" style="block-progression:tb;text-indent:0;text-transform:none"/>
		<path d="m201-45 6-15h32z" fill="#fff"/>
		<path d="m231-28s5.0562 12.797 6.2491 15.623c1.1929 2.8256-0.18937 3.6101-2.7716 2.5892s-38.477-15.212-38.477-15.212v-3l38 15-6-15z" color="#000000" fill="#a0a0a0" style="block-progression:tb;text-indent:0;text-transform:none"/>
		<g fill="#fff">
			<path d="m234-13-6-15h-32z"/>
			<g stroke="#a0a0a0">
				<path transform="matrix(.87501 0 0 .80002 31.288 -56.417)" d="m271 17.5a4 2.5 0 0 1 -4 2.5 4 2.5 0 0 1 -4 -2.5 4 2.5 0 0 1 4 -2.5 4 2.5 0 0 1 4 2.5z" stroke-width="1.1951"/>
				<path transform="matrix(1.0428 0 0 .82844 -6.7035 -60.948)" d="m271 17.5a4 2.5 0 0 1 -4 2.5 4 2.5 0 0 1 -4 -2.5 4 2.5 0 0 1 4 -2.5 4 2.5 0 0 1 4 2.5z" stroke-width="1.4609"/>
				<path transform="matrix(1.375 0 0 1.2379 -89.625 -74.663)" d="m271 17.5a4 2.5 0 0 1 -4 2.5 4 2.5 0 0 1 -4 -2.5 4 2.5 0 0 1 4 -2.5 4 2.5 0 0 1 4 2.5z" stroke-width="1.4"/>
				<path transform="matrix(-.87501 0 0 .80002 532.71 -24.416)" d="m271 17.5a4 2.5 0 0 1 -4 2.5 4 2.5 0 0 1 -4 -2.5 4 2.5 0 0 1 4 -2.5 4 2.5 0 0 1 4 2.5z" stroke-width="1.1951"/>
				<path transform="matrix(-1.0428 0 0 .82844 570.7 -28.947)" d="m271 17.5a4 2.5 0 0 1 -4 2.5 4 2.5 0 0 1 -4 -2.5 4 2.5 0 0 1 4 -2.5 4 2.5 0 0 1 4 2.5z" stroke-width="1.4609"/>
				<path transform="matrix(-1.375 0 0 1.2379 653.62 -42.663)" d="m271 17.5a4 2.5 0 0 1 -4 2.5 4 2.5 0 0 1 -4 -2.5 4 2.5 0 0 1 4 -2.5 4 2.5 0 0 1 4 2.5z" stroke-width="1.4"/>
			</g>
			<path d="m151 9v5.5l-2-2-2.5 2.5-0.65587-0.65587-0.84413-0.84413 2.5-2.5-2-2z"/>
			<path d="m137 9h5.5l-2 2 2.5 2.5-1.5 1.5-2.5-2.5-2 2z"/>
			<path d="m137 23v-5.5l2 2 2.5-2.5 1.5 1.5-2.5 2.5 2 2z"/>
			<path d="m151 23h-5.5l2-2-2.5-2.5 0.65587-0.65587 0.84413-0.84413 2.5 2.5 2-2z"/>
		</g>
	</g>
</svg>
